<svg width="200" height="200" viewBox="0 0 200 200" fill="none" xmlns="http://www.w3.org/2000/svg">
<rect width="200" height="200" fill="#FFD367"/>
<mask id="path-2-outside-1_635_6" maskUnits="userSpaceOnUse" x="85" y="60" width="85" height="129" fill="black">
<rect fill="white" x="85" y="60" width="85" height="129"/>
<path d="M156.584 76.984H131.88L119.592 176.696C119.251 179.427 117.501 180.792 114.344 180.792C111.272 180.792 109.736 179.597 109.736 177.208C109.736 176.867 113.832 143.459 122.024 76.984H97.832C95.016 76.984 93.608 75.8747 93.608 73.656C93.608 70.4987 95.1867 68.92 98.344 68.92H157.096C159.827 68.92 161.192 70.072 161.192 72.376C161.192 75.448 159.656 76.984 156.584 76.984Z"/>
</mask>
<path d="M156.584 76.984H131.88L119.592 176.696C119.251 179.427 117.501 180.792 114.344 180.792C111.272 180.792 109.736 179.597 109.736 177.208C109.736 176.867 113.832 143.459 122.024 76.984H97.832C95.016 76.984 93.608 75.8747 93.608 73.656C93.608 70.4987 95.1867 68.92 98.344 68.92H157.096C159.827 68.92 161.192 70.072 161.192 72.376C161.192 75.448 159.656 76.984 156.584 76.984Z" fill="#4A3F60"/>
<path d="M131.88 76.984V68.984H124.805L123.94 76.0055L131.88 76.984ZM119.592 176.696L127.53 177.688L127.532 177.674L119.592 176.696ZM122.024 76.984L129.964 77.9625L131.07 68.984H122.024V76.984ZM156.584 68.984H131.88V84.984H156.584V68.984ZM123.94 76.0055L111.652 175.718L127.532 177.674L139.82 77.9625L123.94 76.0055ZM111.654 175.704C111.662 175.641 111.711 175.312 111.947 174.851C112.196 174.362 112.585 173.865 113.102 173.461C114.12 172.667 114.874 172.792 114.344 172.792V188.792C116.971 188.792 120.179 188.234 122.946 186.075C125.871 183.792 127.164 180.62 127.53 177.688L111.654 175.704ZM114.344 172.792C113.624 172.792 114.556 172.614 115.8 173.581C116.486 174.115 117.037 174.831 117.377 175.625C117.697 176.37 117.736 176.96 117.736 177.208H101.736C101.736 180.248 102.815 183.752 105.976 186.211C108.756 188.372 111.992 188.792 114.344 188.792V172.792ZM117.736 177.208C117.736 177.746 117.663 178.302 117.703 177.925C117.708 177.882 117.717 177.799 117.732 177.666C117.762 177.404 117.808 177.01 117.872 176.475C117.999 175.409 118.19 173.824 118.446 171.716C118.957 167.502 119.725 161.221 120.749 152.87C122.796 136.168 125.868 111.199 129.964 77.9625L114.084 76.0055C109.988 109.243 106.916 134.216 104.867 150.922C103.843 159.275 103.075 165.564 102.562 169.788C102.306 171.899 102.113 173.499 101.984 174.585C101.92 175.126 101.87 175.549 101.836 175.847C101.819 175.993 101.804 176.126 101.793 176.233C101.787 176.284 101.78 176.354 101.773 176.426C101.77 176.46 101.765 176.523 101.759 176.599C101.756 176.637 101.752 176.699 101.748 176.776C101.745 176.832 101.736 176.997 101.736 177.208H117.736ZM122.024 68.984H97.832V84.984H122.024V68.984ZM97.832 68.984C97.2576 68.984 98.303 68.8344 99.615 69.8681C100.332 70.4326 100.894 71.1787 101.24 71.9949C101.564 72.7625 101.608 73.3772 101.608 73.656H85.608C85.608 76.5737 86.6297 80.0066 89.713 82.4359C92.433 84.579 95.5904 84.984 97.832 84.984V68.984ZM101.608 73.656C101.608 73.3105 101.689 74.5207 100.449 75.7609C99.2087 77.001 97.9985 76.92 98.344 76.92V60.92C95.5322 60.92 91.9539 61.6284 89.1351 64.4471C86.3164 67.2659 85.608 70.8442 85.608 73.656H101.608ZM98.344 76.92H157.096V60.92H98.344V76.92ZM157.096 76.92C157.529 76.92 156.362 77.0398 155.009 75.8983C153.396 74.5372 153.192 72.8471 153.192 72.376H169.192C169.192 69.6009 168.305 66.1828 165.327 63.6697C162.609 61.3762 159.394 60.92 157.096 60.92V76.92ZM153.192 72.376C153.192 72.6788 153.122 71.4366 154.383 70.1751C155.645 68.9137 156.887 68.984 156.584 68.984V84.984C159.353 84.984 162.899 84.2863 165.697 81.4888C168.494 78.6914 169.192 75.1452 169.192 72.376H153.192Z" fill="#4A3F60" mask="url(#path-2-outside-1_635_6)"/>
<mask id="path-4-outside-2_635_6" maskUnits="userSpaceOnUse" x="47" y="24" width="76" height="128" fill="black">
<rect fill="white" x="47" y="24" width="76" height="128"/>
<path d="M110.72 135.808C113.024 135.808 114.176 137.088 114.176 139.648C114.176 140.928 113.835 141.995 113.152 142.848C112.469 143.616 111.616 144 110.592 144H59.264C56.5333 144 55.168 142.933 55.168 140.8V140.032L67.584 36.48C67.9253 33.7493 69.632 32.384 72.704 32.384C75.8613 32.384 77.44 33.4507 77.44 35.584V36.48L65.536 135.808H110.72Z"/>
</mask>
<path d="M110.72 135.808C113.024 135.808 114.176 137.088 114.176 139.648C114.176 140.928 113.835 141.995 113.152 142.848C112.469 143.616 111.616 144 110.592 144H59.264C56.5333 144 55.168 142.933 55.168 140.8V140.032L67.584 36.48C67.9253 33.7493 69.632 32.384 72.704 32.384C75.8613 32.384 77.44 33.4507 77.44 35.584V36.48L65.536 135.808H110.72Z" fill="#00ABCB"/>
<path d="M113.152 142.848L119.131 148.163L119.269 148.008L119.399 147.846L113.152 142.848ZM55.168 140.032L47.2249 139.08L47.168 139.554V140.032H55.168ZM67.584 36.48L59.6458 35.4877L59.6433 35.5077L59.6409 35.5276L67.584 36.48ZM77.44 36.48L85.3832 37.4319L85.44 36.9577V36.48H77.44ZM65.536 135.808L57.5928 134.856L56.52 143.808H65.536V135.808ZM110.72 143.808C110.408 143.808 108.772 143.683 107.366 142.12C106.103 140.717 106.176 139.405 106.176 139.648H122.176C122.176 137.331 121.673 134.099 119.258 131.416C116.7 128.573 113.336 127.808 110.72 127.808V143.808ZM106.176 139.648C106.176 139.577 106.186 139.328 106.301 138.97C106.42 138.597 106.621 138.205 106.905 137.85L119.399 147.846C121.404 145.339 122.176 142.42 122.176 139.648H106.176ZM107.173 137.533C107.506 137.158 108.018 136.731 108.717 136.417C109.417 136.102 110.08 136 110.592 136V152C113.91 152 116.937 150.632 119.131 148.163L107.173 137.533ZM110.592 136H59.264V152H110.592V136ZM59.264 136C58.7209 136 59.787 135.857 61.1172 136.896C61.8457 137.465 62.4245 138.222 62.7822 139.06C63.1193 139.851 63.168 140.492 63.168 140.8H47.168C47.168 143.699 48.1958 147.105 51.2668 149.504C53.9623 151.61 57.0765 152 59.264 152V136ZM63.168 140.8V140.032H47.168V140.8H63.168ZM63.1111 140.984L75.5271 37.4324L59.6409 35.5276L47.2249 139.08L63.1111 140.984ZM75.5222 37.4723C75.5047 37.6125 75.2858 38.7203 74.1176 39.6549C73.0752 40.4889 72.261 40.384 72.704 40.384V24.384C70.075 24.384 66.8715 24.9618 64.1224 27.161C61.2475 29.461 60.0046 32.6169 59.6458 35.4877L75.5222 37.4723ZM72.704 40.384C73.6327 40.384 72.9223 40.5864 71.7771 39.8127C71.1011 39.3559 70.4289 38.6546 69.9696 37.7234C69.5276 36.8275 69.44 36.0403 69.44 35.584H85.44C85.44 32.2325 84.0176 28.7733 80.7349 26.5553C78.0111 24.7149 74.9327 24.384 72.704 24.384V40.384ZM69.44 35.584V36.48H85.44V35.584H69.44ZM69.4968 35.528L57.5928 134.856L73.4792 136.76L85.3832 37.4319L69.4968 35.528ZM65.536 143.808H110.72V127.808H65.536V143.808Z" fill="#00ABCB" mask="url(#path-4-outside-2_635_6)"/>
</svg>
